<svg version="1.1" id="Layer_1" xmlns="http://www.w3.org/2000/svg" xmlns:xlink="http://www.w3.org/1999/xlink" x="0px" y="0px"
	 width="100%" viewBox="0 0 736 736" enable-background="new 0 0 736 736" xml:space="preserve">
<path fill="#c798b4" opacity="1.000000" stroke="none"
	d="
M267.099182,478.898834 
	C254.460098,466.398010 246.298065,451.391296 239.309555,435.276215 
	C235.421463,437.547974 233.317459,440.761017 230.807861,443.521820 
	C220.428391,454.940308 208.573776,464.349884 193.378357,468.175812 
	C176.151077,472.513275 159.906647,468.151703 144.762436,460.016327 
	C124.485245,449.123596 108.726143,433.718750 100.833855,411.528900 
	C88.635757,377.232819 111.036972,342.820038 147.405014,339.703705 
	C148.212341,339.634552 149.010117,339.453735 149.651917,339.350739 
	C150.434982,338.085754 149.809235,337.192749 149.380692,336.333984 
	C138.549683,314.628204 146.647400,288.329376 168.905075,274.950073 
	C184.132095,265.796967 200.996994,262.414368 218.370941,260.736725 
	C229.363525,259.675262 240.314423,260.081451 251.240265,261.496582 
	C253.403854,261.776825 255.141129,260.871246 256.903168,259.940155 
	C266.877991,254.669296 276.576569,255.014786 286.318451,260.809601 
	C295.224152,266.107056 303.995392,271.509857 311.066559,279.233063 
	C314.724548,283.228424 317.775421,287.569031 318.117828,293.210999 
	C318.255646,295.481476 319.681305,296.810516 321.164337,298.146881 
	C327.246124,303.627258 332.896057,309.499634 337.568787,316.249359 
	C338.809631,318.041809 340.361877,318.908356 342.580414,318.931976 
	C353.938354,319.052795 363.602509,323.587921 372.127441,330.738983 
	C375.220306,333.333435 376.773102,332.671722 378.399567,329.209137 
	C383.735291,317.849915 383.914825,317.782074 374.403748,309.258118 
	C362.976807,299.017151 354.861694,286.988464 353.350189,271.340607 
	C351.110107,248.150742 365.113922,226.531525 389.879608,221.684998 
	C403.003143,219.116791 414.519684,223.708389 426.082672,228.418915 
	C432.085175,230.864227 437.979736,233.691986 443.605347,236.903473 
	C447.307800,239.017090 450.534790,239.025055 454.441040,237.756424 
	C470.829559,232.434052 487.194885,232.576004 502.287720,241.310287 
	C519.508423,251.276031 533.823364,264.679047 544.330750,281.814636 
	C549.223267,289.793488 548.894836,298.505798 548.122131,307.486084 
	C550.660522,302.487427 553.359009,297.562317 555.697266,292.471802 
	C558.717163,285.897461 563.979004,282.934937 570.861511,283.117432 
	C585.268066,283.499481 598.970581,285.852631 609.631348,297.099945 
	C615.580627,303.376556 622.087585,309.134949 628.484985,314.971466 
	C631.218262,317.465118 630.408264,319.898590 629.212280,322.633545 
	C624.342712,333.769348 619.637756,344.978729 614.636841,356.054749 
	C612.951355,359.787720 613.467468,361.711060 617.188171,364.008881 
	C630.699463,372.353180 642.840088,382.280487 653.106628,394.651031 
	C676.192871,422.468445 655.476074,462.127380 624.598572,468.221802 
	C602.486328,472.586151 583.208557,465.800232 565.255798,453.559692 
	C558.899963,449.226166 553.146240,444.162567 548.038452,438.414337 
	C546.325562,436.486786 544.716614,435.355408 542.030884,436.408112 
	C527.676331,442.034576 514.220581,438.800049 501.216217,431.994629 
	C497.238190,429.912842 493.327179,427.652496 489.608826,425.142975 
	C487.153381,423.485809 485.388611,423.722290 482.880493,425.196930 
	C473.996338,430.420471 465.026794,435.526184 455.868896,440.248535 
	C447.532196,444.547455 438.840057,444.396271 430.292908,440.573425 
	C427.604950,439.371246 425.450989,438.841248 423.431976,441.817810 
	C421.148651,445.183960 417.526489,444.402252 414.274933,443.832458 
	C408.008606,442.734406 402.029846,440.624939 396.333557,437.814148 
	C394.023712,436.674347 392.150604,436.505615 389.906158,438.109009 
	C382.359528,443.500031 374.142456,447.394165 364.791260,448.477936 
	C361.049835,448.911530 361.020050,451.593445 361.228638,454.404816 
	C362.659729,473.694458 349.008118,490.454742 333.624573,496.950317 
	C318.391785,503.382263 303.320068,501.667206 288.680023,494.625580 
	C280.648285,490.762421 273.549377,485.562256 267.099182,478.898834 
M420.321411,275.750916 
	C418.935913,277.286041 418.457825,279.725403 415.500397,280.331238 
	C410.962006,274.704620 407.658691,268.316437 407.906250,260.948334 
	C408.325378,248.475418 415.536224,240.622040 427.837769,236.326370 
	C420.593597,231.910049 413.660248,230.589951 406.519196,229.834213 
	C382.472412,227.289291 362.532623,248.630737 366.707855,272.429169 
	C369.674866,289.340698 379.970306,300.485077 394.930573,307.549469 
	C399.712799,309.807678 400.065063,312.054626 398.046234,316.335846 
	C394.710358,323.409943 391.970520,330.763885 388.675232,337.858582 
	C383.785217,348.386719 381.098450,359.964539 373.661713,369.287750 
	C366.279907,378.542084 359.172089,388.068359 347.982361,393.228180 
	C342.705536,395.661469 337.370300,395.969910 332.049377,393.454742 
	C326.509857,390.836273 323.661102,383.534637 326.218750,378.758453 
	C335.632202,383.917999 338.446655,384.561646 344.990082,383.051605 
	C360.684540,379.429779 370.975098,364.882477 369.851105,347.906616 
	C369.250671,338.837799 364.364746,332.650909 355.663208,330.086517 
	C347.873993,327.790985 340.266449,328.587524 332.642303,331.198425 
	C313.448029,337.771545 296.693115,361.964508 298.057770,384.316498 
	C298.826813,396.913574 305.849823,407.430450 317.731598,411.831299 
	C335.445770,418.392517 350.678406,413.194275 364.607239,401.841919 
	C366.185760,400.555328 367.164520,398.263428 370.179871,398.414459 
	C372.355621,406.672943 378.669037,409.653625 386.524170,410.461029 
	C392.091064,411.033234 394.300629,409.389008 394.588501,403.755920 
	C395.075226,394.232666 397.614044,385.457886 402.730316,377.356873 
	C410.838867,364.517975 419.087158,351.796997 430.413300,341.471863 
	C432.143585,339.894501 434.261993,337.356598 436.895477,339.048859 
	C439.360046,340.632568 438.196655,343.589142 437.885071,346.007812 
	C437.737579,347.153168 437.337677,348.274078 436.980560,349.383057 
	C433.692902,359.592407 428.829193,369.017059 423.220428,378.146637 
	C419.873535,383.594543 415.993195,387.479492 409.181274,387.627563 
	C407.246704,387.669617 405.267273,388.430817 403.419250,389.147888 
	C397.961945,391.265533 396.974426,394.348053 400.037109,399.223724 
	C405.801697,408.400879 418.430267,411.977386 428.212494,406.021881 
	C435.617004,401.513977 443.465881,397.913239 450.871002,393.458557 
	C456.264862,390.213776 460.660187,385.728882 465.104584,381.833771 
	C466.969604,382.788147 467.231903,383.988739 467.694580,385.035187 
	C472.294830,395.439178 480.352051,401.509399 491.354065,403.806366 
	C508.668518,407.421143 522.679810,401.129028 534.807617,389.219879 
	C535.909424,388.138000 536.509766,386.190399 538.728027,386.646606 
	C538.921509,387.092865 539.215637,387.526276 539.294800,387.995911 
	C539.654602,390.130157 539.893433,392.285736 540.284485,394.413666 
	C543.804932,413.572357 553.080200,427.928619 573.074280,433.032684 
	C595.143311,438.666473 618.903748,431.738098 627.461548,407.546082 
	C635.643250,384.417480 619.199341,363.145233 596.236877,361.104858 
	C594.792664,360.976532 593.225769,360.725281 591.753113,362.245758 
	C592.463196,364.929382 593.408447,367.751251 593.933167,370.649261 
	C594.870178,375.824646 591.375671,382.229279 586.962708,383.855804 
	C582.273010,385.584290 577.224121,383.115234 574.191467,377.729401 
	C572.512573,374.747742 571.753113,371.593231 571.632446,368.187531 
	C571.259216,357.648193 573.863647,347.681091 577.687988,338.039246 
	C582.722961,325.345337 588.004883,312.745117 593.436951,300.215698 
	C595.099060,296.381958 594.207886,294.826630 590.287170,293.951691 
	C585.709595,292.930237 581.150085,292.314514 576.452942,292.231934 
	C571.928528,292.152405 568.993408,293.805573 566.987671,298.002045 
	C559.370911,313.938080 551.573792,329.833862 546.024109,346.602905 
	C541.413879,360.533356 532.296021,370.747070 521.592590,379.925018 
	C516.443054,384.340607 510.240356,386.141022 503.413116,385.196259 
	C495.577179,384.111877 490.207947,375.783051 493.337524,369.319824 
	C497.353638,371.635254 501.275848,373.972443 506.236389,373.983429 
	C524.091431,374.022919 537.754272,357.588898 535.821167,338.135986 
	C534.923157,329.099701 528.841187,322.327820 520.007690,320.424683 
	C510.077637,318.285187 500.846497,320.119385 492.127167,325.128662 
	C480.451233,331.836670 473.031525,342.035797 468.340118,354.377502 
	C466.408417,359.459167 462.999176,363.097351 458.511841,366.175323 
	C460.575317,358.045319 461.360657,350.021729 460.922791,341.873871 
	C460.171509,327.893768 448.986237,320.464020 435.690308,325.078491 
	C428.206848,327.675690 422.499329,332.696228 417.162964,338.295319 
	C416.113800,339.396149 415.527252,341.289673 412.865540,341.027191 
	C414.808655,334.151276 418.833740,328.339569 421.050140,321.833191 
	C422.607727,317.260803 425.380005,316.263123 429.832184,316.884552 
	C447.543701,319.356415 464.689148,316.440948 481.379089,310.598022 
	C491.593567,307.022095 500.666260,301.497711 507.492798,292.844391 
	C520.914185,275.831451 515.684387,253.276810 496.619995,246.053162 
	C491.923950,244.273788 486.965851,243.377838 481.960602,243.297516 
	C455.827209,242.878082 436.013641,254.693985 420.321411,275.750916 
M182.898956,279.383392 
	C166.330109,288.146912 156.569901,300.931610 158.104401,320.646729 
	C159.090897,333.321289 169.416306,344.041595 183.408386,346.480682 
	C195.810089,348.642548 209.154526,341.533905 214.190247,329.871490 
	C206.093048,326.362335 204.737976,319.512024 205.615280,311.697205 
	C207.686157,293.250092 228.582199,278.376678 246.959915,282.252563 
	C247.207214,282.304688 247.377502,282.721893 247.577423,282.977234 
	C247.837677,284.074341 247.243439,284.910919 246.670715,285.714142 
	C236.197586,300.402863 228.097473,316.495392 219.136078,332.082214 
	C210.425888,347.232178 202.214172,362.760803 189.107269,374.846649 
	C184.997116,378.636627 180.517334,381.745300 174.948318,382.864655 
	C170.997360,383.658783 167.237564,383.360779 164.633743,379.688904 
	C162.080032,376.087738 162.014435,372.193512 163.796112,368.312042 
	C165.379883,364.861664 168.155914,362.517029 171.499481,360.748901 
	C172.719543,360.103729 174.538025,360.164062 175.053574,357.890991 
	C170.182236,352.242584 163.581970,349.651794 156.280838,349.316559 
	C138.466522,348.498535 124.782227,356.251099 116.167564,371.546173 
	C107.315407,387.262970 108.175987,403.379547 118.525154,418.246368 
	C131.135880,436.361969 157.406509,440.869843 178.278275,429.191406 
	C190.766678,422.203766 200.403351,412.229095 208.759766,400.825195 
	C222.949188,381.461060 232.792496,359.758179 242.552567,338.020233 
	C249.645660,322.222260 256.230072,306.196045 264.375092,290.879089 
	C266.339203,287.185486 268.224579,286.491211 271.649048,289.174957 
	C281.642242,297.006683 285.623932,307.354584 283.788849,319.605682 
	C281.905670,332.177551 275.103363,341.395386 262.855804,346.031891 
	C260.146667,347.057465 258.007233,346.892761 255.727753,344.522217 
	C251.749161,340.384674 247.791275,340.241272 244.318390,343.399628 
	C240.777435,346.619904 240.339142,351.325562 244.021362,355.421234 
	C246.759186,358.466461 247.472855,361.629395 247.258728,365.441254 
	C247.053360,369.097015 247.160950,372.770355 247.130005,376.435974 
	C246.969620,395.437164 246.957474,414.442993 252.414703,432.897400 
	C258.289307,452.763214 269.610535,466.836456 294.309601,465.875427 
	C309.137726,465.298462 322.039978,455.899597 326.109589,441.553070 
	C327.444397,436.847595 328.799866,431.939880 326.051575,426.870300 
	C324.801514,427.370667 323.719482,427.731628 322.700409,428.223114 
	C314.697968,432.082336 306.890900,431.524170 299.272400,427.179474 
	C294.460571,424.435333 290.214874,421.015228 286.627686,416.742737 
	C274.287140,402.044647 267.943420,384.673462 263.820496,366.263885 
	C263.103271,363.061310 264.290497,361.861511 267.307220,361.982574 
	C272.708710,362.199310 277.915070,361.168243 283.035889,359.588379 
	C307.287262,352.106384 319.127747,328.863983 310.458527,305.430634 
	C305.478485,291.969299 295.400757,283.381256 282.745026,277.399231 
	C280.881805,276.518555 278.484650,276.305420 277.566772,273.958435 
	C278.451538,271.095306 281.987457,270.951385 283.068756,268.412476 
	C278.883789,264.342926 272.219421,263.333832 266.187134,267.423126 
	C261.004242,270.936676 256.075531,270.221954 250.576096,269.794098 
	C227.598343,268.006683 204.952881,269.109375 182.898956,279.383392 
z"/>
<path fill="#c798b4" opacity="1.000000" stroke="none"
	d="
M441.224121,296.170715 
	C438.791565,295.395294 437.404053,294.205750 439.053253,292.079010 
	C449.699829,278.349762 461.624390,266.491699 480.390594,265.375153 
	C483.705353,265.177948 487.072357,265.621277 490.170746,267.011932 
	C494.554901,268.979645 498.514587,271.550018 499.311920,276.753784 
	C500.184845,282.450897 497.487610,286.803864 493.134491,290.111206 
	C486.554352,295.110504 478.722931,296.883942 470.771271,298.024292 
	C460.954468,299.432068 451.185089,299.142120 441.224121,296.170715 
z"/>
<path fill="#c798b4" opacity="1.000000" stroke="none"
	d="
M347.190491,353.930664 
	C342.813965,362.154449 336.836395,367.796417 327.651245,369.947937 
	C327.797028,363.199829 337.570953,350.107544 343.299194,348.371582 
	C346.792908,347.312805 348.105743,349.014618 347.190491,353.930664 
z"/>
<path fill="#c798b4" opacity="1.000000" stroke="none"
	d="
M500.737152,346.800964 
	C503.381866,343.805481 505.656097,340.911133 509.157593,339.466766 
	C511.901794,338.334808 513.854553,339.056244 514.026001,342.204987 
	C514.386597,348.826294 501.511414,360.198242 493.903625,359.528015 
	C494.842041,354.613220 497.953613,350.978607 500.737152,346.800964 
z"/>
</svg>